<mxfile host="65bd71144e">
    <diagram id="dPa3eCRp1KqCvTpyh3m8" name="Page-1">
        <mxGraphModel dx="189" dy="214" grid="1" gridSize="10" guides="1" tooltips="1" connect="1" arrows="1" fold="1" page="1" pageScale="1" pageWidth="827" pageHeight="1169" math="0" shadow="0">
            <root>
                <mxCell id="0"/>
                <mxCell id="1" parent="0"/>
                <mxCell id="23" value="&lt;span style=&quot;font-size: 12px&quot;&gt;window load&lt;/span&gt;" style="edgeStyle=orthogonalEdgeStyle;rounded=0;orthogonalLoop=1;jettySize=auto;html=1;exitX=0.5;exitY=1;exitDx=0;exitDy=0;entryX=0.5;entryY=0;entryDx=0;entryDy=0;" parent="1" source="2" target="63" edge="1">
                    <mxGeometry relative="1" as="geometry">
                        <mxPoint x="260" y="80" as="targetPoint"/>
                    </mxGeometry>
                </mxCell>
                <mxCell id="2" value="" style="ellipse;fillColor=#000000;strokeColor=none;" parent="1" vertex="1">
                    <mxGeometry x="460" width="30" height="30" as="geometry"/>
                </mxCell>
                <mxCell id="25" value="startSpil" style="swimlane;fontStyle=4;align=center;verticalAlign=top;childLayout=stackLayout;horizontal=1;startSize=37;horizontalStack=0;resizeParent=1;resizeParentMax=0;resizeLast=0;collapsible=0;marginBottom=0;html=1;rounded=1;absoluteArcSize=1;arcSize=25;" parent="1" vertex="1">
                    <mxGeometry x="340" y="240" width="270" height="177" as="geometry"/>
                </mxCell>
                <mxCell id="26" value="Afspil 'Sound_background'" style="fillColor=none;strokeColor=none;align=left;verticalAlign=middle;spacingLeft=5;" parent="25" vertex="1">
                    <mxGeometry y="37" width="270" height="20" as="geometry"/>
                </mxCell>
                <mxCell id="124" value="Pause andre lyde" style="fillColor=none;strokeColor=none;align=left;verticalAlign=middle;spacingLeft=5;" vertex="1" parent="25">
                    <mxGeometry y="57" width="270" height="20" as="geometry"/>
                </mxCell>
                <mxCell id="126" value="Skjul andre skærme" style="fillColor=none;strokeColor=none;align=left;verticalAlign=middle;spacingLeft=5;" vertex="1" parent="25">
                    <mxGeometry y="77" width="270" height="20" as="geometry"/>
                </mxCell>
                <mxCell id="50" value="Tilføj 'fladstjerne', 'pos', 'delay' til stjernerne" style="fillColor=none;strokeColor=none;align=left;verticalAlign=middle;spacingLeft=5;" parent="25" vertex="1">
                    <mxGeometry y="97" width="270" height="20" as="geometry"/>
                </mxCell>
                <mxCell id="120" value="Tilføj 'faldmeteor', 'pos', 'delay' til meteor" style="fillColor=none;strokeColor=none;align=left;verticalAlign=middle;spacingLeft=5;" parent="25" vertex="1">
                    <mxGeometry y="117" width="270" height="20" as="geometry"/>
                </mxCell>
                <mxCell id="49" value="Tilføj 'timer' til #time_counter" style="fillColor=none;strokeColor=none;align=left;verticalAlign=middle;spacingLeft=5;" parent="25" vertex="1">
                    <mxGeometry y="137" width="270" height="20" as="geometry"/>
                </mxCell>
                <mxCell id="46" value="Nulstil point og liv" style="fillColor=none;strokeColor=none;align=left;verticalAlign=middle;spacingLeft=5;" parent="25" vertex="1">
                    <mxGeometry y="157" width="270" height="20" as="geometry"/>
                </mxCell>
                <mxCell id="53" value="&lt;span style=&quot;font-size: 12px&quot;&gt;Klik på start_knap&lt;/span&gt;" style="edgeStyle=orthogonalEdgeStyle;rounded=0;orthogonalLoop=1;jettySize=auto;html=1;entryX=0.5;entryY=0;entryDx=0;entryDy=0;exitX=0.526;exitY=1.108;exitDx=0;exitDy=0;exitPerimeter=0;" parent="1" source="122" target="25" edge="1">
                    <mxGeometry x="-0.1244" y="12" relative="1" as="geometry">
                        <mxPoint x="500" y="160" as="sourcePoint"/>
                        <mxPoint as="offset"/>
                    </mxGeometry>
                </mxCell>
                <mxCell id="55" value="clickStar" style="swimlane;fontStyle=4;align=center;verticalAlign=top;childLayout=stackLayout;horizontal=1;startSize=37;horizontalStack=0;resizeParent=1;resizeParentMax=0;resizeLast=0;collapsible=0;marginBottom=0;html=1;rounded=1;absoluteArcSize=1;arcSize=25;" parent="1" vertex="1">
                    <mxGeometry x="10" y="440" width="210" height="97" as="geometry"/>
                </mxCell>
                <mxCell id="117" value="Afspil #sound_click" style="fillColor=none;strokeColor=none;align=left;verticalAlign=middle;spacingLeft=5;" parent="55" vertex="1">
                    <mxGeometry y="37" width="210" height="20" as="geometry"/>
                </mxCell>
                <mxCell id="56" value="Få 1 point" style="fillColor=none;strokeColor=none;align=left;verticalAlign=middle;spacingLeft=5;" parent="55" vertex="1">
                    <mxGeometry y="57" width="210" height="20" as="geometry"/>
                </mxCell>
                <mxCell id="58" value="Tilføj 'zoomoutstjerne' og 'frys'" style="fillColor=none;strokeColor=none;align=left;verticalAlign=middle;spacingLeft=5;" parent="55" vertex="1">
                    <mxGeometry y="77" width="210" height="20" as="geometry"/>
                </mxCell>
                <mxCell id="63" value="sidenVises" style="swimlane;fontStyle=4;align=center;verticalAlign=top;childLayout=stackLayout;horizontal=1;startSize=37;horizontalStack=0;resizeParent=1;resizeParentMax=0;resizeLast=0;collapsible=0;marginBottom=0;html=1;rounded=1;absoluteArcSize=1;arcSize=25;" parent="1" vertex="1">
                    <mxGeometry x="405" y="80" width="175" height="97" as="geometry"/>
                </mxCell>
                <mxCell id="65" value="Vis start skærm" style="fillColor=none;strokeColor=none;align=left;verticalAlign=middle;spacingLeft=5;" parent="63" vertex="1">
                    <mxGeometry y="37" width="175" height="20" as="geometry"/>
                </mxCell>
                <mxCell id="119" value="Tilføj  'rumhop' til #rummand" style="fillColor=none;strokeColor=none;align=left;verticalAlign=middle;spacingLeft=5;" parent="63" vertex="1">
                    <mxGeometry y="57" width="175" height="20" as="geometry"/>
                </mxCell>
                <mxCell id="122" value="Tilføj 'speechan' til #starttxt" style="fillColor=none;strokeColor=none;align=left;verticalAlign=middle;spacingLeft=5;" vertex="1" parent="63">
                    <mxGeometry y="77" width="175" height="20" as="geometry"/>
                </mxCell>
                <mxCell id="68" value="starReset" style="swimlane;fontStyle=4;align=center;verticalAlign=top;childLayout=stackLayout;horizontal=1;startSize=37;horizontalStack=0;resizeParent=1;resizeParentMax=0;resizeLast=0;collapsible=0;marginBottom=0;html=1;rounded=1;absoluteArcSize=1;arcSize=25;" parent="1" vertex="1">
                    <mxGeometry x="10" y="640" width="240" height="97" as="geometry"/>
                </mxCell>
                <mxCell id="69" value="Fjern animationer" style="fillColor=none;strokeColor=none;align=left;verticalAlign=middle;spacingLeft=5;" parent="68" vertex="1">
                    <mxGeometry y="37" width="240" height="20" as="geometry"/>
                </mxCell>
                <mxCell id="70" value="Offsetleft" style="fillColor=none;strokeColor=none;align=left;verticalAlign=middle;spacingLeft=5;" parent="68" vertex="1">
                    <mxGeometry y="57" width="240" height="20" as="geometry"/>
                </mxCell>
                <mxCell id="71" value="Tilføj 'faldsterne' og 'pos'" style="fillColor=none;strokeColor=none;align=left;verticalAlign=middle;spacingLeft=5;" parent="68" vertex="1">
                    <mxGeometry y="77" width="240" height="20" as="geometry"/>
                </mxCell>
                <mxCell id="72" value="zoomstjerne - animation er færdig" style="edgeStyle=orthogonalEdgeStyle;rounded=0;orthogonalLoop=1;jettySize=auto;html=1;exitX=0.5;exitY=1;exitDx=0;exitDy=0;entryX=0.5;entryY=0;entryDx=0;entryDy=0;" parent="1" source="58" target="68" edge="1">
                    <mxGeometry relative="1" as="geometry"/>
                </mxCell>
                <mxCell id="73" value="&quot;mousedown&quot; på en stjerne" style="edgeStyle=orthogonalEdgeStyle;rounded=0;orthogonalLoop=1;jettySize=auto;html=1;exitX=0;exitY=0;exitDx=0;exitDy=0;entryX=0.5;entryY=0;entryDx=0;entryDy=0;" parent="1" target="55" edge="1">
                    <mxGeometry x="0.3336" relative="1" as="geometry">
                        <mxPoint x="-1" as="offset"/>
                        <mxPoint x="340" y="337" as="sourcePoint"/>
                    </mxGeometry>
                </mxCell>
                <mxCell id="74" value="&quot;animationiteration&quot;&amp;nbsp; - &lt;br&gt;animationen har&amp;nbsp;&lt;br&gt;kørt en gang." style="edgeStyle=orthogonalEdgeStyle;rounded=0;orthogonalLoop=1;jettySize=auto;html=1;entryX=1;entryY=0.25;entryDx=0;entryDy=0;" parent="1" target="70" edge="1">
                    <mxGeometry x="0.5551" relative="1" as="geometry">
                        <Array as="points">
                            <mxPoint x="475" y="480"/>
                            <mxPoint x="420" y="480"/>
                            <mxPoint x="420" y="702"/>
                        </Array>
                        <mxPoint as="offset"/>
                        <mxPoint x="475" y="420" as="sourcePoint"/>
                    </mxGeometry>
                </mxCell>
                <mxCell id="75" value="clickMeteor" style="swimlane;fontStyle=4;align=center;verticalAlign=top;childLayout=stackLayout;horizontal=1;startSize=37;horizontalStack=0;resizeParent=1;resizeParentMax=0;resizeLast=0;collapsible=0;marginBottom=0;html=1;rounded=1;absoluteArcSize=1;arcSize=25;" parent="1" vertex="1">
                    <mxGeometry x="640" y="450" width="210" height="117" as="geometry"/>
                </mxCell>
                <mxCell id="118" value="Afspil #sound_bang" style="fillColor=none;strokeColor=none;align=left;verticalAlign=middle;spacingLeft=5;" parent="75" vertex="1">
                    <mxGeometry y="37" width="210" height="20" as="geometry"/>
                </mxCell>
                <mxCell id="121" value="Tilføj 'pulsemeteor' og 'frys'" style="fillColor=none;strokeColor=none;align=left;verticalAlign=middle;spacingLeft=5;" parent="75" vertex="1">
                    <mxGeometry y="57" width="210" height="20" as="geometry"/>
                </mxCell>
                <mxCell id="78" value="Start animation - pulsemeteor - sprite" style="fillColor=none;strokeColor=none;align=left;verticalAlign=middle;spacingLeft=5;" parent="75" vertex="1">
                    <mxGeometry y="77" width="210" height="20" as="geometry"/>
                </mxCell>
                <mxCell id="76" value="Mist et liv" style="fillColor=none;strokeColor=none;align=left;verticalAlign=middle;spacingLeft=5;" parent="75" vertex="1">
                    <mxGeometry y="97" width="210" height="20" as="geometry"/>
                </mxCell>
                <mxCell id="79" value="meteorReset" style="swimlane;fontStyle=4;align=center;verticalAlign=top;childLayout=stackLayout;horizontal=1;startSize=37;horizontalStack=0;resizeParent=1;resizeParentMax=0;resizeLast=0;collapsible=0;marginBottom=0;html=1;rounded=1;absoluteArcSize=1;arcSize=25;" parent="1" vertex="1">
                    <mxGeometry x="640" y="640" width="250" height="97" as="geometry"/>
                </mxCell>
                <mxCell id="80" value="Fjern animationer" style="fillColor=none;strokeColor=none;align=left;verticalAlign=middle;spacingLeft=5;" parent="79" vertex="1">
                    <mxGeometry y="37" width="250" height="20" as="geometry"/>
                </mxCell>
                <mxCell id="81" value="Offsetleft" style="fillColor=none;strokeColor=none;align=left;verticalAlign=middle;spacingLeft=5;" parent="79" vertex="1">
                    <mxGeometry y="57" width="250" height="20" as="geometry"/>
                </mxCell>
                <mxCell id="82" value="Tilføj 'faldmeteor' og 'pos'" style="fillColor=none;strokeColor=none;align=left;verticalAlign=middle;spacingLeft=5;" parent="79" vertex="1">
                    <mxGeometry y="77" width="250" height="20" as="geometry"/>
                </mxCell>
                <mxCell id="83" value="pulsemeteor - animationen er færdig" style="edgeStyle=orthogonalEdgeStyle;rounded=0;orthogonalLoop=1;jettySize=auto;html=1;exitX=0.5;exitY=1;exitDx=0;exitDy=0;entryX=0.5;entryY=0;entryDx=0;entryDy=0;" parent="1" source="78" target="79" edge="1">
                    <mxGeometry relative="1" as="geometry"/>
                </mxCell>
                <mxCell id="84" value="&quot;mousedown&quot; på en &lt;br&gt;meteor" style="edgeStyle=orthogonalEdgeStyle;rounded=0;orthogonalLoop=1;jettySize=auto;html=1;exitX=1;exitY=0.75;exitDx=0;exitDy=0;entryX=0.5;entryY=0;entryDx=0;entryDy=0;" parent="1" source="50" target="75" edge="1">
                    <mxGeometry x="-0.4366" y="5" relative="1" as="geometry">
                        <mxPoint as="offset"/>
                    </mxGeometry>
                </mxCell>
                <mxCell id="85" value="&quot;animationiteration&quot; - &lt;br&gt;animationen har&amp;nbsp;&lt;br&gt;kørt en gang." style="edgeStyle=orthogonalEdgeStyle;rounded=0;orthogonalLoop=1;jettySize=auto;html=1;entryX=0;entryY=0.25;entryDx=0;entryDy=0;" parent="1" edge="1">
                    <mxGeometry x="0.599" relative="1" as="geometry">
                        <mxPoint x="470" y="420" as="sourcePoint"/>
                        <mxPoint x="640" y="702" as="targetPoint"/>
                        <Array as="points">
                            <mxPoint x="475" y="702"/>
                        </Array>
                        <mxPoint as="offset"/>
                    </mxGeometry>
                </mxCell>
                <mxCell id="87" value="&lt;span style=&quot;font-size: 12px&quot;&gt;timer -animation færdig&lt;/span&gt;" style="edgeStyle=orthogonalEdgeStyle;rounded=0;orthogonalLoop=1;jettySize=auto;html=1;entryX=0.5;entryY=0;entryDx=0;entryDy=0;exitX=1;exitY=0.75;exitDx=0;exitDy=0;" parent="1" source="46" target="88" edge="1">
                    <mxGeometry x="-0.6654" relative="1" as="geometry">
                        <mxPoint x="740.0000000000002" y="120" as="sourcePoint"/>
                        <mxPoint x="765" y="87" as="targetPoint"/>
                        <mxPoint as="offset"/>
                    </mxGeometry>
                </mxCell>
                <mxCell id="88" value="stopSpillet" style="swimlane;fontStyle=4;align=center;verticalAlign=top;childLayout=stackLayout;horizontal=1;startSize=30;horizontalStack=0;resizeParent=1;resizeParentMax=0;resizeLast=0;collapsible=0;marginBottom=0;html=1;rounded=1;absoluteArcSize=1;arcSize=50;" parent="1" vertex="1">
                    <mxGeometry x="990" y="400" width="170" height="70" as="geometry"/>
                </mxCell>
                <mxCell id="89" value="Fjern alle animationer" style="fillColor=none;strokeColor=none;align=left;verticalAlign=middle;spacingLeft=5;" parent="88" vertex="1">
                    <mxGeometry y="30" width="170" height="20" as="geometry"/>
                </mxCell>
                <mxCell id="90" value="Fjern alle eventListerner-ere" style="fillColor=none;strokeColor=none;align=left;verticalAlign=middle;spacingLeft=5;" parent="88" vertex="1">
                    <mxGeometry y="50" width="170" height="20" as="geometry"/>
                </mxCell>
                <mxCell id="91" value="[point &amp;gt; 6]" style="edgeStyle=orthogonalEdgeStyle;rounded=0;orthogonalLoop=1;jettySize=auto;html=1;exitX=0.5;exitY=1;exitDx=0;exitDy=0;entryX=0.5;entryY=0;entryDx=0;entryDy=0;" parent="1" source="90" target="92" edge="1">
                    <mxGeometry relative="1" as="geometry">
                        <mxPoint x="1060" y="520" as="targetPoint"/>
                        <Array as="points">
                            <mxPoint x="1075" y="510"/>
                            <mxPoint x="1220" y="510"/>
                        </Array>
                    </mxGeometry>
                </mxCell>
                <mxCell id="92" value="levelComplete" style="swimlane;fontStyle=4;align=center;verticalAlign=top;childLayout=stackLayout;horizontal=1;startSize=30;horizontalStack=0;resizeParent=1;resizeParentMax=0;resizeLast=0;collapsible=0;marginBottom=0;html=1;rounded=1;absoluteArcSize=1;arcSize=92;" parent="1" vertex="1">
                    <mxGeometry x="1140" y="530" width="150" height="130" as="geometry"/>
                </mxCell>
                <mxCell id="93" value="Afspil #sound_speech" style="fillColor=none;strokeColor=none;align=left;verticalAlign=middle;spacingLeft=5;" parent="92" vertex="1">
                    <mxGeometry y="30" width="150" height="20" as="geometry"/>
                </mxCell>
                <mxCell id="132" value="Tilføj 'rumhop' til rummand" style="fillColor=none;strokeColor=none;align=left;verticalAlign=middle;spacingLeft=5;" vertex="1" parent="92">
                    <mxGeometry y="50" width="150" height="20" as="geometry"/>
                </mxCell>
                <mxCell id="133" value="Tilføj 'speechan_start'" style="fillColor=none;strokeColor=none;align=left;verticalAlign=middle;spacingLeft=5;" vertex="1" parent="92">
                    <mxGeometry y="70" width="150" height="20" as="geometry"/>
                </mxCell>
                <mxCell id="134" value="Vis level_complete skærm" style="fillColor=none;strokeColor=none;align=left;verticalAlign=middle;spacingLeft=5;" vertex="1" parent="92">
                    <mxGeometry y="90" width="150" height="20" as="geometry"/>
                </mxCell>
                <mxCell id="135" style="fillColor=none;strokeColor=none;align=left;verticalAlign=middle;spacingLeft=5;" vertex="1" parent="92">
                    <mxGeometry y="110" width="150" height="20" as="geometry"/>
                </mxCell>
                <mxCell id="94" style="edgeStyle=orthogonalEdgeStyle;rounded=0;orthogonalLoop=1;jettySize=auto;html=1;entryX=0.5;entryY=0;entryDx=0;entryDy=0;" parent="1" target="102" edge="1">
                    <mxGeometry relative="1" as="geometry">
                        <mxPoint x="1185" y="620" as="targetPoint"/>
                        <mxPoint x="1175" y="660" as="sourcePoint"/>
                    </mxGeometry>
                </mxCell>
                <mxCell id="95" value="gameOver" style="swimlane;fontStyle=4;align=center;verticalAlign=top;childLayout=stackLayout;horizontal=1;startSize=30;horizontalStack=0;resizeParent=1;resizeParentMax=0;resizeLast=0;collapsible=0;marginBottom=0;html=1;rounded=1;absoluteArcSize=1;arcSize=92;" parent="1" vertex="1">
                    <mxGeometry x="900" y="527" width="190" height="130" as="geometry"/>
                </mxCell>
                <mxCell id="128" value="Afspil #sound_speech_gameover'" style="fillColor=none;strokeColor=none;align=left;verticalAlign=middle;spacingLeft=5;" vertex="1" parent="95">
                    <mxGeometry y="30" width="190" height="20" as="geometry"/>
                </mxCell>
                <mxCell id="129" value="Tilføj 'rumhop' til rummand" style="fillColor=none;strokeColor=none;align=left;verticalAlign=middle;spacingLeft=5;" vertex="1" parent="95">
                    <mxGeometry y="50" width="190" height="20" as="geometry"/>
                </mxCell>
                <mxCell id="130" value="Tilføj 'speechan_gameover'" style="fillColor=none;strokeColor=none;align=left;verticalAlign=middle;spacingLeft=5;" vertex="1" parent="95">
                    <mxGeometry y="70" width="190" height="20" as="geometry"/>
                </mxCell>
                <mxCell id="96" value="Vis gameover skærm" style="fillColor=none;strokeColor=none;align=left;verticalAlign=middle;spacingLeft=5;" parent="95" vertex="1">
                    <mxGeometry y="90" width="190" height="20" as="geometry"/>
                </mxCell>
                <mxCell id="131" value="Afspil #sound_gameover" style="fillColor=none;strokeColor=none;align=left;verticalAlign=middle;spacingLeft=5;" vertex="1" parent="95">
                    <mxGeometry y="110" width="190" height="20" as="geometry"/>
                </mxCell>
                <mxCell id="98" value="[ellers]" style="edgeStyle=orthogonalEdgeStyle;rounded=0;orthogonalLoop=1;jettySize=auto;html=1;exitX=0.5;exitY=1;exitDx=0;exitDy=0;entryX=0.5;entryY=0;entryDx=0;entryDy=0;" parent="1" source="90" target="95" edge="1">
                    <mxGeometry relative="1" as="geometry">
                        <mxPoint x="974" y="530" as="targetPoint"/>
                        <Array as="points">
                            <mxPoint x="1075" y="510"/>
                            <mxPoint x="970" y="510"/>
                        </Array>
                    </mxGeometry>
                </mxCell>
                <mxCell id="99" style="edgeStyle=orthogonalEdgeStyle;rounded=0;orthogonalLoop=1;jettySize=auto;html=1;exitX=0;exitY=0;exitDx=0;exitDy=0;entryX=0.25;entryY=0;entryDx=0;entryDy=0;" parent="1" source="90" target="95" edge="1">
                    <mxGeometry relative="1" as="geometry">
                        <mxPoint x="939" y="530" as="targetPoint"/>
                    </mxGeometry>
                </mxCell>
                <mxCell id="100" value="[ingen liv tilbage]" style="edgeLabel;html=1;align=center;verticalAlign=middle;resizable=0;points=[];" parent="99" vertex="1" connectable="0">
                    <mxGeometry x="0.2849" relative="1" as="geometry">
                        <mxPoint as="offset"/>
                    </mxGeometry>
                </mxCell>
                <mxCell id="101" value="" style="ellipse;html=1;shape=endState;fillColor=#000000;strokeColor=#000000;" parent="1" vertex="1">
                    <mxGeometry x="920" y="707" width="30" height="30" as="geometry"/>
                </mxCell>
                <mxCell id="102" value="" style="ellipse;html=1;shape=endState;fillColor=#000000;strokeColor=#000000;" parent="1" vertex="1">
                    <mxGeometry x="1160" y="707" width="30" height="30" as="geometry"/>
                </mxCell>
                <mxCell id="103" value="Klik på genstart1" style="edgeStyle=orthogonalEdgeStyle;rounded=0;orthogonalLoop=1;jettySize=auto;html=1;entryX=0.819;entryY=-0.005;entryDx=0;entryDy=0;entryPerimeter=0;" parent="1" target="25" edge="1">
                    <mxGeometry x="-0.8478" y="30" relative="1" as="geometry">
                        <mxPoint x="710" y="263" as="targetPoint"/>
                        <Array as="points">
                            <mxPoint x="1043" y="660"/>
                            <mxPoint x="990" y="660"/>
                            <mxPoint x="990" y="780"/>
                            <mxPoint x="1350" y="780"/>
                            <mxPoint x="1350" y="200"/>
                            <mxPoint x="561" y="200"/>
                        </Array>
                        <mxPoint as="offset"/>
                        <mxPoint x="1040" y="660" as="sourcePoint"/>
                    </mxGeometry>
                </mxCell>
                <mxCell id="104" value="Klik på genstart2" style="edgeStyle=orthogonalEdgeStyle;rounded=0;orthogonalLoop=1;jettySize=auto;html=1;entryX=1.015;entryY=0.097;entryDx=0;entryDy=0;entryPerimeter=0;" parent="1" target="25" edge="1">
                    <mxGeometry x="-0.797" relative="1" as="geometry">
                        <mxPoint x="1255" y="780" as="targetPoint"/>
                        <Array as="points">
                            <mxPoint x="1255" y="680"/>
                            <mxPoint x="1300" y="680"/>
                            <mxPoint x="1300" y="259"/>
                        </Array>
                        <mxPoint as="offset"/>
                        <mxPoint x="1250" y="660" as="sourcePoint"/>
                    </mxGeometry>
                </mxCell>
                <mxCell id="109" style="edgeStyle=orthogonalEdgeStyle;rounded=0;orthogonalLoop=1;jettySize=auto;html=1;entryX=0.5;entryY=0;entryDx=0;entryDy=0;" parent="1" target="101" edge="1">
                    <mxGeometry relative="1" as="geometry">
                        <mxPoint x="948" y="660" as="sourcePoint"/>
                    </mxGeometry>
                </mxCell>
                <mxCell id="110" style="edgeStyle=orthogonalEdgeStyle;rounded=0;orthogonalLoop=1;jettySize=auto;html=1;exitX=1;exitY=0.5;exitDx=0;exitDy=0;entryX=0.213;entryY=0.014;entryDx=0;entryDy=0;entryPerimeter=0;" parent="1" source="76" target="88" edge="1">
                    <mxGeometry relative="1" as="geometry">
                        <Array as="points">
                            <mxPoint x="860" y="527"/>
                            <mxPoint x="860" y="380"/>
                            <mxPoint x="1026" y="380"/>
                        </Array>
                    </mxGeometry>
                </mxCell>
                <mxCell id="111" value="[ingen liv tilbage]" style="edgeLabel;html=1;align=center;verticalAlign=middle;resizable=0;points=[];" parent="110" vertex="1" connectable="0">
                    <mxGeometry x="-0.0005" y="1" relative="1" as="geometry">
                        <mxPoint x="55" y="-2" as="offset"/>
                    </mxGeometry>
                </mxCell>
            </root>
        </mxGraphModel>
    </diagram>
</mxfile>